<?xml version="1.0" encoding="UTF-8"?>
<svg width="100px" height="32px" viewBox="0 0 100 32" version="1.1" xmlns="http://www.w3.org/2000/svg" xmlns:xlink="http://www.w3.org/1999/xlink">
    <!-- Generator: Sketch 54 (76480) - https://sketchapp.com -->
    <title>logo-filled</title>
    <desc>Created with Sketch.</desc>
    <g id="Page-1" stroke="none" stroke-width="1" fill="none" fill-rule="evenodd">
        <g id="Artboard" transform="translate(-120.000000, -46.000000)" fill="#5DCFCD">
            <g id="Global-Nav">
                <g id="logo-filled" transform="translate(120.000000, 46.000000)">
                    <g>
                        <path d="M22.7300473,19.0887843 L18.5973186,8.85945098 L14.4646688,19.0887843 L22.7300473,19.0887843 Z M25.3933754,25.7562353 L11.8013407,25.7562353 L9.27578864,31.9669804 L0,31.9669804 L14.1890379,0 L23.1433754,0 L37.3783912,31.9669804 L27.9190852,31.9669804 L25.3933754,25.7562353 L25.3933754,25.7562353 Z" id="Fill-5"></path>
                        <polyline id="Fill-6" points="60.9550473 19.3171765 53.194795 19.3171765 53.194795 26.8522353 46.1231861 26.8522353 46.1231861 19.3171765 38.3167981 19.3171765 38.3167981 12.6498039 46.1231861 12.6498039 46.1231861 5.11466667 53.194795 5.11466667 53.194795 12.6498039 60.9550473 12.6498039 60.9550473 19.3171765"></polyline>
                        <path d="M81.6643533,24.7513725 C84.4198738,24.7513725 86.6304416,23.9752941 88.3,22.4225882 C89.9679811,20.8698824 90.8023659,18.723451 90.8023659,15.9833725 C90.8023659,13.2433725 89.9679811,11.097098 88.3,9.54439216 C86.6304416,7.99168627 84.4198738,7.21537255 81.6643533,7.21537255 L75.9246057,7.21537255 L75.9246057,24.7513725 L81.6643533,24.7513725 Z M66.8324132,0 L82.0318612,0 C85.5515773,0 88.673817,0.654980392 91.3993691,1.96360784 C94.1233438,3.27294118 96.2361199,5.13035294 97.7361199,7.53498039 C99.2353312,9.94047059 99.9861199,12.7568627 99.9861199,15.9833725 C99.9861199,19.210902 99.2353312,22.0272157 97.7361199,24.4318431 C96.2361199,26.8373333 94.1233438,28.6946667 91.3993691,30.0033725 C88.673817,31.3126275 85.5515773,31.9669804 82.0318612,31.9669804 L66.8324132,31.9669804 L66.8324132,0 L66.8324132,0 Z" id="Fill-7"></path>
                    </g>
                </g>
            </g>
        </g>
    </g>
</svg>